<svg width="36" height="34" viewBox="0 0 36 34" fill="none" xmlns="http://www.w3.org/2000/svg">
<path d="M13.2823 13.7724C11.8522 13.7724 10.4183 13.7724 8.98823 13.7724C6.93104 13.7724 4.87385 13.7724 2.82049 13.7724C2.60254 13.7724 2.38458 13.7724 2.17045 13.7724C2.13986 13.7724 2.1131 13.7724 2.08251 13.7724C2.06339 13.7724 2.04809 13.7724 2.02897 13.7724C1.94103 13.7648 1.95632 13.7686 2.07486 13.7839C2.06721 13.7915 1.96397 13.761 1.94867 13.7572C1.93338 13.7534 1.82631 13.7305 1.82631 13.719C1.8569 13.7305 1.88749 13.7457 1.91426 13.7572C1.88367 13.7419 1.85308 13.7267 1.82631 13.7114C1.81102 13.7038 1.70013 13.6465 1.70013 13.6313C1.7269 13.6504 1.74984 13.6694 1.7766 13.6885C1.74984 13.6656 1.7269 13.6427 1.70395 13.6198C1.70778 13.6237 1.63512 13.5512 1.63512 13.5474C1.70013 13.6389 1.7116 13.6504 1.66189 13.5817C1.64277 13.555 1.62365 13.5245 1.60836 13.4978C1.60071 13.4825 1.59306 13.4672 1.58542 13.452C1.551 13.3757 1.55483 13.3909 1.60071 13.4978C1.58924 13.4978 1.55865 13.3642 1.55483 13.3528C1.55483 13.3604 1.52806 13.2536 1.53571 13.2498C1.53953 13.2841 1.54718 13.3146 1.551 13.349C1.54718 13.3146 1.54718 13.2765 1.54718 13.2421C1.54718 13.2345 1.54718 13.2269 1.54718 13.2193C1.54718 13.162 1.54718 13.101 1.54718 13.0438C1.54718 12.7691 1.54718 12.4982 1.54718 12.2235C1.54718 10.1138 1.54718 8.00022 1.54718 5.89049C1.54718 4.94816 1.54718 4.00584 1.54718 3.06351C1.54718 2.79645 1.54718 2.5294 1.54718 2.26234C1.54718 2.20512 1.54718 2.14408 1.54718 2.08685C1.54718 2.07922 1.54718 2.07159 1.54718 2.06777C1.54718 2.0487 1.54718 2.03344 1.54718 2.01436C1.55483 1.94569 1.551 1.94569 1.54335 2.01055C1.53953 2.02581 1.53953 2.04488 1.53571 2.06014C1.53953 2.02581 1.54718 1.99147 1.55483 1.95714C1.55865 1.94188 1.58924 1.81216 1.60071 1.81216C1.55483 1.91517 1.551 1.93043 1.58542 1.85794C1.60071 1.82742 1.61601 1.80072 1.63512 1.7702C1.64277 1.75494 1.65424 1.74349 1.66189 1.72823C1.70013 1.67482 1.70013 1.67482 1.66189 1.72442C1.65042 1.73586 1.64277 1.75112 1.6313 1.76257C1.65424 1.73586 1.67719 1.71297 1.70013 1.69008C1.7116 1.67864 1.72307 1.66719 1.73454 1.65575C1.79572 1.60233 1.78425 1.60996 1.69631 1.67864C1.69631 1.66338 1.80719 1.60615 1.82249 1.59852C1.83778 1.59089 1.85308 1.58326 1.86837 1.57563C1.94485 1.54129 1.92955 1.54511 1.82249 1.59089C1.84543 1.59089 1.89132 1.568 1.91808 1.56037C1.93338 1.55655 2.06339 1.51459 2.07103 1.52603C1.9525 1.54129 1.9372 1.54511 2.02515 1.53748C2.04427 1.53748 2.05956 1.53748 2.07868 1.53748C2.10927 1.53748 2.14369 1.53748 2.17428 1.53748C2.39605 1.53748 2.61783 1.53748 2.83961 1.53748C3.74584 1.53748 4.64825 1.53748 5.55448 1.53748C7.71109 1.53748 9.86387 1.53748 12.0205 1.53748C12.4411 1.53748 12.8655 1.52985 13.2861 1.53748C13.3053 1.53748 13.3206 1.53748 13.3397 1.53748C13.4276 1.54511 13.4123 1.54129 13.2938 1.52603C13.3014 1.51459 13.4314 1.55655 13.4467 1.56037C13.462 1.56418 13.4812 1.57181 13.4964 1.57563C13.5729 1.60615 13.5615 1.59852 13.4544 1.55655C13.462 1.54892 13.5538 1.60996 13.5653 1.61378C13.5806 1.62141 13.6685 1.66719 13.6685 1.68245C13.6418 1.66338 13.6188 1.6443 13.592 1.62522C13.6188 1.64811 13.6417 1.67101 13.6647 1.6939C13.6762 1.70534 13.6876 1.71679 13.6991 1.72823C13.7526 1.78927 13.745 1.77783 13.6762 1.69008C13.7029 1.69008 13.7679 1.83887 13.7832 1.86176C13.8482 1.96477 13.7526 1.81598 13.7679 1.81598C13.7794 1.81598 13.81 1.94951 13.8138 1.96095C13.8176 1.97621 13.8215 1.99529 13.8253 2.01055C13.8406 2.09448 13.8368 2.07922 13.8215 1.96095C13.8253 1.96095 13.8253 2.06777 13.8253 2.06777C13.8253 2.0754 13.8253 2.08685 13.8253 2.09448C13.8253 2.26616 13.8253 2.44165 13.8253 2.61333C13.8253 4.59717 13.8253 6.58101 13.8253 8.56486C13.8253 10.1176 13.8444 11.6703 13.8253 13.2231C13.8253 13.2307 13.8253 13.2383 13.8253 13.2421C13.8253 13.2612 13.8253 13.2765 13.8253 13.2956C13.8176 13.3833 13.8215 13.368 13.8368 13.2498C13.8482 13.2574 13.8062 13.3871 13.8023 13.4024C13.7985 13.4215 13.7335 13.5702 13.7871 13.4558C13.8406 13.3375 13.7679 13.4863 13.7603 13.5016C13.7526 13.5168 13.6953 13.6275 13.68 13.6275C13.6991 13.6008 13.7182 13.5779 13.7373 13.5512C13.7144 13.5779 13.6915 13.6008 13.6685 13.6237C13.657 13.6351 13.6456 13.6465 13.6341 13.658C13.5729 13.7114 13.5844 13.7038 13.6723 13.6351C13.6723 13.6427 13.6035 13.6847 13.5882 13.6923C13.5767 13.7 13.462 13.7724 13.4544 13.7648C13.485 13.7534 13.5156 13.7381 13.5423 13.7267C13.5117 13.7381 13.4773 13.7496 13.4467 13.7572C13.4314 13.761 13.3014 13.803 13.2938 13.7915C13.3282 13.7877 13.3588 13.7801 13.3932 13.7763C13.355 13.7724 13.3206 13.7724 13.2823 13.7724C12.8808 13.7801 12.4984 14.1158 12.5176 14.5355C12.5367 14.9437 12.8541 15.3061 13.2823 15.2985C14.4218 15.2756 15.328 14.3752 15.3471 13.2383C15.351 13.1086 15.3471 12.9827 15.3471 12.853C15.3471 12.0442 15.3471 11.2392 15.3471 10.4304C15.3471 8.18335 15.3471 5.94008 15.3471 3.693C15.3471 3.15507 15.3548 2.61715 15.3471 2.07922C15.3357 1.18268 14.7889 0.412029 13.9438 0.110637C13.6532 0.00763022 13.3473 0 13.0452 0C11.1678 0 9.2903 0 7.41284 0C5.66537 0 3.91409 0 2.16663 0C1.55865 0 0.958318 0.209829 0.549175 0.675269C0.174446 1.09874 0.0138479 1.61378 0.0138479 2.17078C0.0138479 2.82316 0.0138479 3.47554 0.0138479 4.12792C0.0138479 6.39026 0.0138479 8.6526 0.0138479 10.9149C0.0138479 11.6246 0.0138479 12.3342 0.0138479 13.0438C0.0138479 13.4367 0.0635569 13.8106 0.23945 14.1692C0.583589 14.875 1.33687 15.287 2.10927 15.2947C3.76114 15.3061 5.41683 15.2947 7.0687 15.2947C9.02646 15.2947 10.9842 15.2947 12.9382 15.2947C13.0529 15.2947 13.1676 15.2947 13.2785 15.2947C13.68 15.2947 14.0624 14.9437 14.0432 14.5316C14.028 14.1234 13.7106 13.7724 13.2823 13.7724ZM13.2823 18.6939C11.7949 18.6939 10.3074 18.6939 8.81998 18.6939C6.76279 18.6939 4.70561 18.6939 2.64842 18.6939C2.46871 18.6939 2.28899 18.6939 2.10927 18.6939C1.22216 18.7015 0.465052 19.228 0.143856 20.0444C-0.0626273 20.5747 0.0138479 21.2576 0.0138479 21.8184C0.0138479 23.9854 0.0138479 26.1524 0.0138479 28.3232C0.0138479 29.2579 0.0138479 30.1964 0.0138479 31.1311C0.0138479 31.3676 0.0138479 31.6003 0.0138479 31.8369C0.0138479 32.4167 0.201212 32.9737 0.618003 33.3896C1.03862 33.8093 1.59689 33.9924 2.18192 33.9924C2.41517 33.9924 2.64842 33.9924 2.87785 33.9924C3.81467 33.9924 4.75532 33.9924 5.69214 33.9924C7.87169 33.9924 10.0551 33.9924 12.2346 33.9924C12.8808 33.9924 13.5691 34.061 14.1733 33.7864C14.9036 33.4544 15.3395 32.6914 15.3471 31.9055C15.3471 31.7262 15.3471 31.5469 15.3471 31.3676C15.3471 29.3151 15.3471 27.2626 15.3471 25.2101C15.3471 23.726 15.3739 22.2419 15.3471 20.7579C15.328 19.6171 14.4218 18.7168 13.2823 18.6939C12.8808 18.6863 12.4984 19.0525 12.5176 19.4569C12.5367 19.8766 12.8541 20.2123 13.2823 20.2199C13.3014 20.2199 13.3167 20.2199 13.3358 20.2199C13.4238 20.2276 13.4085 20.2237 13.29 20.2085C13.2976 20.197 13.4276 20.239 13.4429 20.2428C13.4582 20.2466 13.4773 20.2543 13.4926 20.2581C13.5691 20.2886 13.5576 20.281 13.4506 20.239C13.4582 20.2314 13.55 20.2924 13.5615 20.2962C13.5767 20.3039 13.6647 20.3496 13.6647 20.3649C13.6379 20.3458 13.615 20.3268 13.5882 20.3077C13.615 20.3306 13.6379 20.3535 13.6609 20.3763C13.6723 20.3878 13.6838 20.3992 13.6953 20.4107C13.7488 20.4717 13.7412 20.4603 13.6723 20.3725C13.6991 20.3725 13.7641 20.5213 13.7794 20.5442C13.8444 20.6472 13.7488 20.4984 13.7641 20.4984C13.7756 20.4984 13.8062 20.632 13.81 20.6434C13.8138 20.6587 13.8176 20.6777 13.8215 20.693C13.8368 20.7769 13.8329 20.7617 13.8176 20.6434C13.8215 20.6434 13.8215 20.7502 13.8215 20.7502C13.8215 20.7579 13.8215 20.7693 13.8215 20.7769C13.8215 20.9486 13.8215 21.1241 13.8215 21.2958C13.8215 22.1351 13.8215 22.9706 13.8215 23.8099C13.8215 25.9998 13.8215 28.1858 13.8215 30.3757C13.8215 30.8869 13.8291 31.3943 13.8215 31.9055C13.8215 31.9132 13.8215 31.9208 13.8215 31.9246C13.8215 31.9437 13.8215 31.9589 13.8215 31.978C13.8138 32.0658 13.8176 32.0505 13.8329 31.9322C13.8444 31.9399 13.8023 32.0696 13.7985 32.0848C13.7947 32.1039 13.7297 32.2527 13.7832 32.1382C13.8368 32.02 13.7412 32.2069 13.7297 32.226C13.722 32.2413 13.7106 32.2527 13.7029 32.268C13.657 32.3328 13.6647 32.3214 13.7297 32.2336C13.7335 32.2412 13.6341 32.3328 13.6265 32.3404C13.5156 32.4625 13.7679 32.2603 13.6265 32.3443C13.5959 32.3595 13.5691 32.3786 13.5423 32.3977C13.527 32.4053 13.5117 32.4129 13.4964 32.4206C13.42 32.4549 13.4353 32.4511 13.5423 32.4053C13.5423 32.4167 13.4085 32.4473 13.397 32.4511C13.3817 32.4549 13.3626 32.4587 13.3473 32.4625C13.2632 32.4778 13.2785 32.474 13.397 32.4587C13.3817 32.4511 13.3129 32.4625 13.29 32.4625C13.1676 32.4663 13.0414 32.4625 12.9191 32.4625C11.011 32.4625 9.09912 32.4625 7.19106 32.4625C5.51625 32.4625 3.84144 32.4625 2.16663 32.4625C2.12074 32.4625 2.07486 32.4625 2.0328 32.4625C1.85308 32.4663 2.19722 32.5045 2.02897 32.4663C1.99456 32.4587 1.96014 32.4511 1.92955 32.4435C1.91426 32.4396 1.89514 32.432 1.87985 32.4282C1.80337 32.3977 1.81484 32.4053 1.92191 32.4473C1.91426 32.4549 1.79955 32.3824 1.78808 32.3748C1.77278 32.3671 1.76131 32.3557 1.74601 32.3481C1.68101 32.3023 1.69248 32.3099 1.78043 32.3748C1.77278 32.3786 1.68101 32.2794 1.67336 32.2718C1.58542 32.1917 1.71542 32.3099 1.69631 32.3099C1.66954 32.3099 1.60453 32.1611 1.58924 32.1382C1.50129 31.9971 1.62748 32.2985 1.58924 32.1344C1.57777 32.0848 1.56247 32.0352 1.551 31.9856C1.51659 31.8674 1.57012 32.0391 1.55483 32.0352C1.551 32.0352 1.551 31.9284 1.551 31.9284C1.551 31.9208 1.551 31.9093 1.551 31.9017C1.551 31.8407 1.551 31.7796 1.551 31.7186C1.551 31.0166 1.551 30.3146 1.551 29.6127C1.551 27.3999 1.551 25.191 1.551 22.9782C1.551 22.2991 1.551 21.6201 1.551 20.9448C1.551 20.8876 1.551 20.8303 1.551 20.7731C1.551 20.7502 1.551 20.7235 1.551 20.7044C1.54718 20.548 1.551 20.7579 1.53953 20.7502C1.52806 20.7426 1.57012 20.6129 1.57394 20.5976C1.57777 20.5824 1.58542 20.5633 1.58924 20.548C1.61983 20.4717 1.61218 20.4832 1.57012 20.59C1.55865 20.5785 1.65807 20.4336 1.66954 20.4145C1.74601 20.2886 1.6466 20.4565 1.64277 20.4488C1.63895 20.4412 1.73837 20.3496 1.74601 20.342C1.8569 20.2199 1.60453 20.4221 1.74601 20.3382C1.78808 20.3115 1.83396 20.2886 1.87602 20.2619C2.0175 20.1741 1.71542 20.3 1.87985 20.2619C1.91426 20.2543 1.94485 20.2428 1.97926 20.2352C1.99456 20.2314 2.01368 20.2276 2.02897 20.2237C2.1131 20.2085 2.0978 20.2123 1.97926 20.2276C1.97926 20.2237 2.08633 20.2237 2.08633 20.2237C2.12074 20.2237 2.15516 20.2237 2.18957 20.2237C3.89497 20.2237 5.60037 20.2237 7.30577 20.2237C9.19089 20.2237 11.076 20.2237 12.9611 20.2237C13.072 20.2237 13.1791 20.2237 13.29 20.2237C13.6915 20.2237 14.0738 19.8728 14.0547 19.4607C14.028 19.0449 13.7106 18.6939 13.2823 18.6939ZM18.6126 4.89475C19.1671 4.89475 19.7177 4.89475 20.2722 4.89475C21.5914 4.89475 22.9144 4.89475 24.2336 4.89475C25.8357 4.89475 27.4417 4.89475 29.0439 4.89475C30.4243 4.89475 31.8046 4.89475 33.185 4.89475C33.858 4.89475 34.531 4.91382 35.204 4.89475C35.2154 4.89475 35.2231 4.89475 35.2346 4.89475C35.6361 4.89475 36.0184 4.54376 35.9993 4.13173C35.9802 3.7197 35.6628 3.36872 35.2346 3.36872C34.6801 3.36872 34.1295 3.36872 33.575 3.36872C32.2558 3.36872 30.9328 3.36872 29.6136 3.36872C28.0115 3.36872 26.4055 3.36872 24.8033 3.36872C23.4229 3.36872 22.0426 3.36872 20.6622 3.36872C19.9892 3.36872 19.3162 3.34964 18.6432 3.36872C18.6318 3.36872 18.6241 3.36872 18.6126 3.36872C18.2112 3.36872 17.8288 3.7197 17.8479 4.13173C17.867 4.54376 18.1844 4.89475 18.6126 4.89475ZM29.2274 10.4037C28.0268 10.4037 26.8299 10.4037 25.6293 10.4037C23.725 10.4037 21.8246 10.4037 19.9204 10.4037C19.4845 10.4037 19.0486 10.4037 18.6126 10.4037C18.2112 10.4037 17.8288 10.7547 17.8479 11.1667C17.867 11.5788 18.1844 11.9298 18.6126 11.9298C19.8133 11.9298 21.0101 11.9298 22.2108 11.9298C24.115 11.9298 26.0155 11.9298 27.9197 11.9298C28.3556 11.9298 28.7915 11.9298 29.2274 11.9298C29.6289 11.9298 30.0113 11.5788 29.9922 11.1667C29.9731 10.7547 29.6557 10.4037 29.2274 10.4037ZM18.6126 23.5886C19.1671 23.5886 19.7177 23.5886 20.2722 23.5886C21.5914 23.5886 22.9144 23.5886 24.2336 23.5886C25.8357 23.5886 27.4417 23.5886 29.0439 23.5886C30.4243 23.5886 31.8046 23.5886 33.185 23.5886C33.858 23.5886 34.531 23.6077 35.204 23.5886C35.2154 23.5886 35.2231 23.5886 35.2346 23.5886C35.6361 23.5886 36.0184 23.2377 35.9993 22.8256C35.9802 22.4136 35.6628 22.0626 35.2346 22.0626C34.6801 22.0626 34.1295 22.0626 33.575 22.0626C32.2558 22.0626 30.9328 22.0626 29.6136 22.0626C28.0115 22.0626 26.4055 22.0626 24.8033 22.0626C23.4229 22.0626 22.0426 22.0626 20.6622 22.0626C19.9892 22.0626 19.3162 22.0435 18.6432 22.0626C18.6318 22.0626 18.6241 22.0626 18.6126 22.0626C18.2112 22.0626 17.8288 22.4136 17.8479 22.8256C17.867 23.2377 18.1844 23.5886 18.6126 23.5886ZM29.2274 29.0976C28.0268 29.0976 26.8299 29.0976 25.6293 29.0976C23.725 29.0976 21.8246 29.0976 19.9204 29.0976C19.4845 29.0976 19.0486 29.0976 18.6126 29.0976C18.2112 29.0976 17.8288 29.4486 17.8479 29.8606C17.867 30.2727 18.1844 30.6237 18.6126 30.6237C19.8133 30.6237 21.0101 30.6237 22.2108 30.6237C24.115 30.6237 26.0155 30.6237 27.9197 30.6237C28.3556 30.6237 28.7915 30.6237 29.2274 30.6237C29.6289 30.6237 30.0113 30.2727 29.9922 29.8606C29.9731 29.4486 29.6557 29.0976 29.2274 29.0976Z" fill="white"/>
</svg>
