<svg width="17" height="34" viewBox="0 0 17 34" fill="none" xmlns="http://www.w3.org/2000/svg">
<path d="M4.15793 17.0921C3.61877 16.5529 2.8875 16.25 2.125 16.25H0.75V13.5H12.0004L12.0085 27.625C12.0085 27.6251 12.0085 27.6253 12.0085 27.6254C12.0087 29.2142 13.2993 30.5 14.8835 30.5H16.25V33.25H0.75V30.5H2.125C2.8875 30.5 3.61877 30.1971 4.15793 29.6579C4.6971 29.1188 5 28.3875 5 27.625V19.125C5 18.3625 4.6971 17.6312 4.15793 17.0921Z" stroke="white" stroke-width="1.5"/>
<path d="M12 4.25C12 6.183 10.433 7.75 8.5 7.75C6.567 7.75 5 6.183 5 4.25C5 2.317 6.567 0.75 8.5 0.75C10.433 0.75 12 2.317 12 4.25Z" stroke="white" stroke-width="1.5"/>
</svg>
