<svg width="34" height="34" viewBox="0 0 34 34" fill="none" xmlns="http://www.w3.org/2000/svg">
<path d="M4.25 8.49992L8.5 2.83325H25.5L29.75 8.49992M4.25 8.49992V28.3333C4.25 29.0847 4.54851 29.8054 5.07986 30.3367C5.61122 30.8681 6.33189 31.1666 7.08333 31.1666H26.9167C27.6681 31.1666 28.3888 30.8681 28.9201 30.3367C29.4515 29.8054 29.75 29.0847 29.75 28.3333V8.49992M4.25 8.49992H29.75M22.6667 14.1666C22.6667 15.6695 22.0696 17.1108 21.0069 18.1735C19.9442 19.2362 18.5029 19.8333 17 19.8333C15.4971 19.8333 14.0558 19.2362 12.9931 18.1735C11.9304 17.1108 11.3333 15.6695 11.3333 14.1666" stroke="#FFFBFB" stroke-width="2" stroke-linecap="round" stroke-linejoin="round"/>
</svg>
