<svg width="36" height="38" viewBox="0 0 36 38" fill="none" xmlns="http://www.w3.org/2000/svg">
<path d="M13.2122 33.9114V28.6979C13.2121 27.3719 14.2831 26.2944 15.6101 26.2855H20.4709C21.8042 26.2855 22.8851 27.3656 22.8851 28.6979V33.9276C22.8848 35.0534 23.784 35.9736 24.9104 36H28.1509C31.3813 36 34 33.3832 34 30.1551V15.3243C33.9827 14.0544 33.3861 12.8619 32.3797 12.0862L21.2972 3.16501C19.3557 1.61166 16.5957 1.61166 14.6542 3.16501L3.62025 12.1023C2.61012 12.8749 2.01244 14.0694 2 15.3405V30.1551C2 33.3832 4.61874 36 7.84911 36H11.0896C12.244 36 13.1797 35.0649 13.1797 33.9114" stroke="white" stroke-width="2.5" stroke-linecap="round" stroke-linejoin="round"/>
</svg>
